<?xml version="1.0" ?><svg style="enable-background:new 0 0 512 512;" version="1.1" viewBox="0 0 512 512" xml:space="preserve" xmlns="http://www.w3.org/2000/svg" xmlns:xlink="http://www.w3.org/1999/xlink"><style type="text/css">
	.st0{display:none;fill:#FEFEFE;}
	.st1{fill:#0079BF;}
	.st2{fill:#FFFFFF;}
</style><g id="Layer_1"/><g id="Layer_2"><g><path class="st0" d="M0.4,512.4c0-170.7,0-341.3,0-512c170.7,0,341.3,0,512,0c0,170.7,0,341.3,0,512    C341.8,512.4,171.1,512.4,0.4,512.4z"/><path class="st1" d="M256.8,425.5c-44.2,0-88.5,0-132.7,0c-5.9,0-11.3-1.5-16.4-4.3c-7.7-4.1-13.3-10.3-16.8-18.3    c-1.8-4.2-2.9-8.5-2.9-13.1c0-88.8,0-177.6,0-266.4c0-5.8,1.7-11.2,4.4-16.2c4.2-7.5,10.3-13.1,18.2-16.6    c4.1-1.7,8.2-2.8,12.7-2.8c88.7,0,177.5,0,266.2,0c5.9,0,11.3,1.5,16.4,4.3c7.7,4.1,13.3,10.3,16.8,18.3c1.8,4.2,2.9,8.5,2.9,13.1    c0,88.8,0,177.6,0,266.4c0,5.8-1.7,11.2-4.4,16.2c-4.2,7.5-10.3,13.1-18.2,16.6c-4.1,1.7-8.2,2.8-12.7,2.8    C345.8,425.4,301.3,425.5,256.8,425.5z"/><path class="st2" d="M238,247.3c0,33.6,0,67.3,0,100.9c0,11.5-9.5,21-21,21c-23.5-0.1-47.1-0.1-70.6,0c-10.8,0-19.7-8.6-20.7-18.3    c-0.1-1.2-0.2-2.4-0.2-3.6c0-66.8,0-133.5,0-200.3c0-8.6,3.8-15.1,11.4-19.3c2.8-1.5,5.8-2.3,9-2.3c24,0,47.9-0.1,71.9,0    c9.7,0,18.4,7.7,20,17.2c0.2,1.4,0.3,2.8,0.3,4.2C238,180.3,238,213.8,238,247.3z"/><path class="st2" d="M388.2,195.7c0,16.3,0,32.6,0,48.8c0,9.6-5.7,17.5-14.7,20.5c-1.8,0.6-3.7,0.9-5.6,0.9c-23.9,0-47.8,0-71.7,0    c-8.1,0-15.7-5.2-18.8-12.7c-1.1-2.7-1.7-5.4-1.7-8.3c0-32.9,0-65.8,0-98.7c0-11.4,9.4-20.8,20.7-20.8c23.6,0,47.2,0,70.8,0    c10.7,0,19.8,8.6,20.7,18.3c0.1,1.2,0.2,2.4,0.2,3.6C388.2,163.4,388.2,179.5,388.2,195.7z"/></g></g></svg>